<?xml version="1.0" encoding="utf-8"?>
<svg viewBox="16.5902 136.1669 37.6902 40.6612" xmlns="http://www.w3.org/2000/svg">
    <path id="path1771-4-6" style="display:inline;fill:#ffffff;stroke-width:0.245466"
        d="m 28.061853,142.72617 a 11.49964,11.49964 0 0 0 -11.471651,11.51816 11.49964,11.49964 0 0 0 11.509375,11.48095 11.49964,11.49964 0 0 0 10.169405,-6.15518 h -3.867464 a 8.3448215,8.3448215 0 0 1 -6.27972,2.85771 8.3448215,8.3448215 0 0 1 -8.351429,-8.33179 8.3448215,8.3448215 0 0 1 8.32404,-8.35815 8.3448215,8.3448215 0 0 1 7.743714,5.194 l 2.459281,-1.99161 a 11.49964,11.49964 0 0 0 -10.235551,-6.21409 z" />
    <path id="path1487" style="display:inline;fill:#ff0000;stroke-width:0.264583"
        d="m 53.41276,136.16688 -25.284244,22.82083 h 24.549406 z m -4.260205,8.22431 -0.55087,10.85877 -9.335348,-0.0171 -1.171505,-0.0258 z" />
    <path id="rect2010" style="fill:#0000ff;stroke-width:0.264583"
        d="m -167.10702,3.4257991 -6.9888,6.07e-5 2.5e-4,-16.7540568 5.59053,2.42e-4 a 11.671516,11.49964 15.2 0 1 0.37923,-3.475163 11.671516,11.49964 15.2 0 1 0.27246,-0.866842 l -10.58411,-1.6e-5 -1.4e-4,25.4377196 10.15101,-3.833e-4 z"
        transform="matrix(-0.26218912724097676, -0.9650165084373504, 0.9650165084373504, -0.26218912724097676, 0, 0)" />
</svg>